<svg xmlns="http://www.w3.org/2000/svg" viewBox="0 0 120 92" role="img" aria-label="Cafe serving cloche">
  <defs>
    <linearGradient id="gold" x1="0" y1="0" x2="0" y2="1">
      <stop offset="0" stop-color="#ffc63b"/>
      <stop offset="1" stop-color="#f2a20c"/>
    </linearGradient>
  </defs>
  <path d="M24 69c2-27 15-43 36-43s34 16 36 43H24Z" fill="url(#gold)"/>
  <path d="M18 70h84c3 0 5 2 5 5s-2 5-5 5H18c-3 0-5-2-5-5s2-5 5-5Z" fill="#eca00b"/>
  <path d="M27 65c3-20 14-33 33-36" fill="none" stroke="#ffe18b" stroke-width="4" stroke-linecap="round"/>
  <circle cx="60" cy="21" r="7" fill="#f3a510"/>
  <path d="M59 15v-5" stroke="#f3a510" stroke-width="4" stroke-linecap="round"/>
  <path d="M20 84h80" stroke="#f3a510" stroke-width="5" stroke-linecap="round"/>
  <path d="M16 18v-8M12 14h8M102 24v-9M98 19.5h8" stroke="#1c1917" stroke-width="3" stroke-linecap="round"/>
</svg>
